<svg width="1512" height="321" viewBox="0 0 1512 321" fill="none" xmlns="http://www.w3.org/2000/svg">
<g clip-path="url(#clip0_3_46)">
<path d="M1513.28 96.2172L1462.29 106.929C1411.31 117.242 1309.34 139.266 1207.36 138.991C1105.39 139.315 1003.41 117.34 901.432 123.064C799.458 128.389 697.49 160.413 595.513 155.138C493.536 149.462 391.55 107.487 289.571 91.211C187.591 75.5355 85.6179 85.56 34.6314 91.2722L-16.3552 96.5845L-16.3783 0.584465L34.6097 0.572222C85.5974 0.559979 187.573 0.535492 289.549 0.511006C391.524 0.48652 493.5 0.462034 595.476 0.437548C697.451 0.413062 799.427 0.388575 901.403 0.364089C1003.38 0.339603 1105.35 0.315117 1207.33 0.290631C1309.31 0.266145 1411.28 0.241658 1462.27 0.229415L1513.26 0.217172L1513.28 96.2172Z" fill="#3393E6"/>
</g>
<defs>
<clipPath id="clip0_3_46">
<rect width="1529.63" height="320" fill="white" transform="translate(1513.33 320.217) rotate(179.986)"/>
</clipPath>
</defs>
</svg>
